<svg xmlns="http://www.w3.org/2000/svg" xmlns:xlink="http://www.w3.org/1999/xlink" version="1.1" width="256" height="256" viewBox="0 0 256 256" xml:space="preserve">
<g style="stroke: none; stroke-width: 0; stroke-dasharray: none; stroke-linecap: butt; stroke-linejoin: miter; stroke-miterlimit: 10; fill: none; fill-rule: nonzero; opacity: 1;" transform="translate(1.4065934065934016 1.4065934065934016) scale(2.81 2.81)">
	<path d="M 71.095 73.439 c 5.448 -6.822 8.712 -15.464 8.712 -24.874 c 0 -9.185 -3.111 -17.639 -8.327 -24.384 L 46.64 49.003 L 71.095 73.439 z" style="stroke: none; stroke-width: 1; stroke-dasharray: none; stroke-linecap: butt; stroke-linejoin: miter; stroke-miterlimit: 10; fill: rgb(206,206,206); fill-rule: nonzero; opacity: 1;" transform=" matrix(1 0 0 1 0 0) " stroke-linecap="round"/>
	<path d="M 39.904 8.661 L 39.904 8.661 C 17.866 8.661 0 26.527 0 48.565 v 0 c 0 9.39 3.251 18.015 8.679 24.831 L 64.735 17.34 C 57.919 11.912 49.294 8.661 39.904 8.661 z" style="stroke: none; stroke-width: 1; stroke-dasharray: none; stroke-linecap: butt; stroke-linejoin: miter; stroke-miterlimit: 10; fill: rgb(3,173,83); fill-rule: nonzero; opacity: 1;" transform=" matrix(1 0 0 1 0 0) " stroke-linecap="round"/>
	<path d="M 22.372 45.649 c -6.622 0 -12.009 -5.387 -12.009 -12.009 c 0 -6.622 5.387 -12.009 12.009 -12.009 c 3.189 0 6.192 1.237 8.456 3.482 l -2.958 2.983 c -1.472 -1.46 -3.425 -2.264 -5.498 -2.264 c -4.306 0 -7.808 3.503 -7.808 7.808 s 3.503 7.808 7.808 7.808 c 3.373 0 6.267 -2.142 7.351 -5.166 h -6.999 v -4.201 h 11.758 l -0.119 2.213 C 34.02 40.661 28.753 45.649 22.372 45.649 z" style="stroke: none; stroke-width: 1; stroke-dasharray: none; stroke-linecap: butt; stroke-linejoin: miter; stroke-miterlimit: 10; fill: rgb(248,252,255); fill-rule: nonzero; opacity: 1;" transform=" matrix(1 0 0 1 0 0) " stroke-linecap="round"/>
	<path d="M 39.866 55.796 L 15.52 80.142 c 6.744 5.216 15.198 8.327 24.384 8.327 h 0 c 9.166 0 17.604 -3.098 24.341 -8.294 L 39.866 55.796 z" style="stroke: none; stroke-width: 1; stroke-dasharray: none; stroke-linecap: butt; stroke-linejoin: miter; stroke-miterlimit: 10; fill: rgb(70,130,196); fill-rule: nonzero; opacity: 1;" transform=" matrix(1 0 0 1 0 0) " stroke-linecap="round"/>
	<path d="M 46.64 49.003 l -6.794 6.794 l 24.379 24.379 c 2.545 -1.963 4.846 -4.226 6.851 -6.736 L 46.64 49.003 z" style="stroke: none; stroke-width: 1; stroke-dasharray: none; stroke-linecap: butt; stroke-linejoin: miter; stroke-miterlimit: 10; fill: rgb(242,242,242); fill-rule: nonzero; opacity: 1;" transform=" matrix(1 0 0 1 0 0) " stroke-linecap="round"/>
	<path d="M 64.735 17.34 L 8.679 73.396 c 2.002 2.514 4.299 4.779 6.841 6.746 l 55.96 -55.96 C 69.514 21.639 67.249 19.342 64.735 17.34 z" style="stroke: none; stroke-width: 1; stroke-dasharray: none; stroke-linecap: butt; stroke-linejoin: miter; stroke-miterlimit: 10; fill: rgb(252,224,0); fill-rule: nonzero; opacity: 1;" transform=" matrix(1 0 0 1 0 0) " stroke-linecap="round"/>
	<path d="M 67.844 1.531 c -12.236 0 -22.156 9.919 -22.156 22.156 c 0 17.296 18.326 29.268 22.156 46.5 C 71.674 52.955 90 40.984 90 23.687 C 90 11.451 80.08 1.531 67.844 1.531 z" style="stroke: none; stroke-width: 1; stroke-dasharray: none; stroke-linecap: butt; stroke-linejoin: miter; stroke-miterlimit: 10; fill: rgb(239,57,49); fill-rule: nonzero; opacity: 1;" transform=" matrix(1 0 0 1 0 0) " stroke-linecap="round"/>
	<circle cx="67.84100000000001" cy="23.811" r="9.381" style="stroke: none; stroke-width: 1; stroke-dasharray: none; stroke-linecap: butt; stroke-linejoin: miter; stroke-miterlimit: 10; fill: rgb(164,30,34); fill-rule: nonzero; opacity: 1;" transform="  matrix(1 0 0 1 0 0) "/>
</g>
</svg>
